<svg width="88" height="83" viewBox="0 0 88 83" fill="none" xmlns="http://www.w3.org/2000/svg">
<rect width="8.39208" height="0.48081" transform="matrix(-0.0442211 -0.999022 0.985376 -0.170393 66.1194 43.4526)" fill="#C9FCBE" fill-opacity="0.85"/>
<rect width="1.03565" height="2.33325" transform="matrix(-0.89516 0.445746 -0.123879 -0.992297 31.6208 81.5768)" fill="#F62584" fill-opacity="0.6"/>
<rect width="5.17962" height="0.842147" transform="matrix(-0.644104 -0.764938 0.290859 -0.956766 73.0703 17.4219)" fill="#BA3E03" fill-opacity="0.45"/>
<rect width="2.03919" height="0.885004" transform="matrix(-0.766092 0.642731 -0.209973 -0.977707 23.3908 76.7142)" fill="#FC9E1C" fill-opacity="0.6"/>
<rect width="1.52469" height="1.30133" transform="matrix(-0.435311 0.90028 -0.460303 -0.887762 39.0614 74.545)" fill="#03A3F5" fill-opacity="0.45"/>
<rect width="4.5654" height="0.557328" transform="matrix(-0.190652 -0.981658 0.796658 -0.60443 61.7294 34.7758)" fill="#9AF5FC" fill-opacity="0.35"/>
<rect width="4.07004" height="0.847354" transform="matrix(0.035357 -0.999375 0.990584 0.136909 8.0484 21.1245)" fill="#4BC8EF" fill-opacity="0.75"/>
<rect width="4.79451" height="1.94859" transform="matrix(0.489869 0.871796 -0.414564 0.91002 31.1711 38.0461)" fill="#FFED36" fill-opacity="0.35"/>
<rect width="8.47453" height="1.30422" transform="matrix(-0.43899 0.898492 -0.464085 -0.885791 21.5844 13.1707)" fill="#FFED36" fill-opacity="0.6"/>
<rect width="1.73336" height="1.65386" transform="matrix(0.971792 0.235838 -0.0620027 0.998076 42.7802 33.3295)" fill="#FC9E1C" fill-opacity="0.85"/>
<circle cx="57.5" cy="6.5" r="0.5" fill="#03A3F5" fill-opacity="0.35"/>
<ellipse cx="27.5" cy="60.5" rx="0.5" ry="1.5" fill="#FC9E1C" fill-opacity="0.85"/>
<ellipse cx="49" cy="80" rx="1" ry="2" fill="#755FFE" fill-opacity="0.6"/>
<ellipse cx="75.5" cy="26" rx="0.5" ry="1" fill="#F62584" fill-opacity="0.85"/>
<circle cx="2.5" cy="41.5" r="0.5" fill="#755FFE" fill-opacity="0.85"/>
<ellipse cx="46.5" cy="59" rx="0.5" ry="2" fill="#FFED36" fill-opacity="0.35"/>
<ellipse cx="83.5" cy="67" rx="0.5" ry="2" fill="#F62584" fill-opacity="0.6"/>
<ellipse cx="35" cy="54.5" rx="1" ry="1.5" fill="#480CA7" fill-opacity="0.45"/>
<ellipse cx="79" cy="18.5" rx="1" ry="1.5" fill="#9AF5FC" fill-opacity="0.65"/>
<ellipse cx="33.5" cy="44.5" rx="0.5" ry="1.5" fill="#9DED1A" fill-opacity="0.35"/>
<ellipse cx="19" cy="23.5" rx="1" ry="1.5" fill="#BA3E03" fill-opacity="0.35"/>
<ellipse cx="57.5" cy="52.5" rx="0.5" ry="1.5" fill="#03A3F5" fill-opacity="0.65"/>
<path d="M9.37795 75.0593L8.31371 73.9875L9.31544 72.7017L9.37795 75.0593Z" fill="#03A3F5" fill-opacity="0.35"/>
<path d="M0.240499 43.3283L1.31972 42.1459L1.91794 44.279L0.838721 45.4614L0.240499 43.3283Z" fill="#755FFE" fill-opacity="0.85"/>
<path d="M21 41L21.3455 39.0979L21.9045 39.8244V42.1756L21.3455 42.9021L21 41Z" fill="#4BC8EF" fill-opacity="0.45"/>
<path d="M79.2123 33.4066L78.7301 31.1617L79.866 30.2087L80.3481 32.4537L79.2123 33.4066Z" fill="#BA3E03" fill-opacity="0.65"/>
<path d="M60.0931 60.4552L59.6083 58.1978L60.5447 56.5889L61.6082 57.852L61.3291 60.2415L60.0931 60.4552Z" fill="#755FFE" fill-opacity="0.35"/>
<path d="M67.4441 58.7575L66.5128 57.1575L67.3223 55.3168L68.2536 56.9169L67.4441 58.7575Z" fill="#FFED36" fill-opacity="0.45"/>
<path d="M38.8036 31.4274L39.9597 30.5502L40.9221 32.0906L40.7284 34.508L39.5723 35.3852L38.6099 33.8449L38.8036 31.4274Z" fill="#F62584" fill-opacity="0.35"/>
<path d="M22.2428 30.9471L22.9944 32.7818L21.8147 33.1511L22.2428 30.9471Z" fill="#755FFE" fill-opacity="0.45"/>
<path d="M29.0248 29.5855L28.1027 31.2264L27.0282 30.0002L27.2862 27.6015L28.5201 27.3452L29.0248 29.5855Z" fill="#FF21FB"/>
<path d="M56.2422 47.3583L56.4616 45.4801L57.4119 45.9137L57.1925 47.7919L56.2422 47.3583Z" fill="#9DED1A" fill-opacity="0.9"/>
<path d="M63.8593 43.742L65.1111 45.3488L64.2982 47.823L63.0463 46.2162L63.8593 43.742Z" fill="#FFED36" fill-opacity="0.6"/>
<path d="M17.3022 40.7475L17.8754 39.6145L18.5978 40.342L18.4709 41.9245L17.6703 42.1752L17.3022 40.7475Z" fill="#03A3F5" fill-opacity="0.65"/>
<path d="M66.1042 6.13077L64.7824 7.57889L64.8088 4.59236L66.1042 6.13077Z" fill="#4BC8EF" fill-opacity="0.45"/>
<path d="M70.3183 78.401L70.4438 79.9836L69.7289 80.711L69.1616 79.578L69.5259 78.1504L70.3183 78.401Z" fill="#FF21FB" fill-opacity="0.85"/>
<path d="M66.2389 32.7979L65.6726 31.1951L64.8438 32.2619L65.2629 30.4912L64.381 29.6058L65.3665 29.4379L65.3135 27.4857L65.8798 29.0885L66.7086 28.0217L66.2895 29.7925L67.1714 30.6778L66.1859 30.8458L66.2389 32.7979Z" fill="#FC9E1C" fill-opacity="0.9"/>
<path d="M80.76 71.193L81.5712 71.2976L82.139 70.1358L82.0867 71.756L82.6684 72.89L81.8572 72.7854L81.2894 73.9472L81.3417 72.3271L80.76 71.193Z" fill="#FFED36" fill-opacity="0.6"/>
<path d="M73.2032 8.27149L73.8786 9.1956L74.6732 8.78378L74.2056 10.1187L74.414 11.6891L73.7386 10.765L72.9441 11.1768L73.4116 9.84194L73.2032 8.27149Z" fill="#C9FCBE" fill-opacity="0.85"/>
<path d="M86.4656 44.8561L86.2026 43.1555L85.303 43.1245L86.04 42.1045L85.7769 40.4039L86.4955 41.4741L87.2325 40.4541L86.9396 42.1355L87.6581 43.2057L86.7585 43.1747L86.4656 44.8561Z" fill="#BA3E03" fill-opacity="0.45"/>
<path d="M84.4075 0.980165L85.2631 1.52969L85.792 0.0910161L85.792 1.86931L86.6477 2.41884L85.792 2.96836L85.792 4.74666L85.2631 3.30799L84.4075 3.85751L84.9363 2.41884L84.4075 0.980165Z" fill="#FFED36" fill-opacity="0.85"/>
<path d="M42.918 26.0321L43.8798 26.1548L44.553 24.7916L44.4909 26.6926L45.1806 28.0231L44.2188 27.9004L43.5456 29.2636L43.6077 27.3626L42.918 26.0321Z" fill="#C9FCBE" fill-opacity="0.9"/>
<path d="M15.7733 38.4293L15.4714 36.4775L14.4389 36.4419L15.2848 35.2712L14.9829 33.3195L15.8076 34.5477L16.6534 33.3771L16.3172 35.3069L17.1419 36.5352L16.1095 36.4995L15.7733 38.4293Z" fill="#F54721" fill-opacity="0.75"/>
<path d="M25.5751 32.1612L26.1025 32.3581L26.5214 31.6949L26.4218 32.7373L26.7574 33.5652L26.23 33.3684L25.8111 34.0315L25.9107 32.9892L25.5751 32.1612Z" fill="#F54721" fill-opacity="0.35"/>
<path d="M82.0674 32.7336L81.7426 34.5271L82.22 36.1819L81.3126 35.54L80.4754 36.4836L80.8002 34.6901L80.3228 33.0353L81.2302 33.6773L82.0674 32.7336Z" fill="#FF21FB" fill-opacity="0.6"/>
<path d="M8.47856 52.5111L9.38597 53.153L10.2232 52.2094L9.89841 54.0029L10.3758 55.6577L9.46842 55.0157L8.63119 55.9593L8.95598 54.1658L8.47856 52.5111Z" fill="#9DED1A" fill-opacity="0.9"/>
<path d="M2.31454 27.4407L2.33256 25.4001L1.35621 24.7356L2.3437 24.1389L2.36172 22.0982L2.95401 23.7701L3.94151 23.1733L3.32006 24.8033L3.91235 26.4752L2.93599 25.8107L2.31454 27.4407Z" fill="#4BC8EF" fill-opacity="0.65"/>
</svg>
